
<svg xmlns="http://www.w3.org/2000/svg" width="150" height="150" viewBox="0 0 401.11 554.84">
<defs>
<style>.a{fill:#ffe4b4;}.b{fill:#ffefb4;}.c{fill:#f15a24;}.d,.h{fill:none;}.d,.e,.h{stroke:#000;}.d,.e,.f,.h{stroke-miterlimit:10;}.d,.e,.f{stroke-width:5.91px;}.e{opacity:0.57;}.f,.g{fill:#fff;}.f{stroke:#29abe2;opacity:0.22;}.h{stroke-linecap:round;stroke-width:12.07px;}</style>
</defs>
<path d="M928,637.51v5A20.53,20.53,0,0,1,907.47,663h-29.8A24.68,24.68,0,0,1,853,638.33v-3.47C787.23,647,738,696.15,738,755c0,67.93,65.59,73,146.5,73s146.5-5.07,146.5-73C1031,699.79,987.67,653.07,928,637.51Z" transform="translate(-691.75 -406.94)"/>
<path class="a" d="M161.25,173.06h75a0,0,0,0,1,0,0v62.47a20.53,20.53,0,0,1-20.53,20.53h-29.8a24.67,24.67,0,0,1-24.67-24.67V173.06a0,0,0,0,1,0,0Z"/><ellipse class="b" cx="203.25" cy="120.56" rx="99" ry="94.5"/>
<path class="c" d="M815,506v42l-29-30s-3-56,36-85H799s12-14,49-7l-14-19s41-2,66,17c0,0,22-29,60-5s57,11,57,11-6,24-35,24c0,0,17,26,19,62l-32,27V510s-45-22-74-33Z" transform="translate(-691.75 -406.94)"/>
<ellipse cx="158.75" cy="159.06" rx="7.5" ry="14"/>
<ellipse cx="237.75" cy="156.06" rx="7.5" ry="14"/>
<path d="M885,601.8a30,30,0,0,1,4-.84c1.3-.2,2.58-.35,3.84-.46a31.81,31.81,0,0,1,3.77-.13c.63,0,1.26,0,1.88,0a16.28,16.28,0,0,0,1.86-.13,19.12,19.12,0,0,0,3.58-.75c.58-.19,1.11-.39,1.69-.64s1.17-.55,1.75-.84c1.16-.57,2.31-1.17,3.41-1.84.56-.33,1.1-.68,1.62-1.06a7.72,7.72,0,0,0,1.42-1.22l.36.18a12.24,12.24,0,0,1-2.66,3.09c-1,.9-2,1.74-3.1,2.55-.54.4-1.09.78-1.64,1.16s-1.21.76-1.84,1.09a22.37,22.37,0,0,1-4,1.41c-1.34.37-2.69.68-4,.93a16,16,0,0,1-4.09.18,21.35,21.35,0,0,1-4-.73A15.3,15.3,0,0,1,885,602.2Z" transform="translate(-691.75 -406.94)"/><line class="d" x1="192.09" y1="133.29" x2="217.2" y2="133.29"/><polyline class="d" points="294.18 127.38 305.83 111.14 311.25 116.73"/><polyline class="d" points="112.89 129.78 101.25 113.53 95.83 119.13"/><path class="e" d="M804.13,537c-6.72,8.4-5.91,39.88,14.77,47.27s59.08,4.43,62-4.43,8.86-32.5,2.95-39.89S816,522.25,804.13,537Z" transform="translate(-691.75 -406.94)"/><path class="e" d="M988.7,536.5c6.71,8.4,5.91,39.88-14.77,47.27s-59.09,4.43-62-4.43-8.87-32.5-3-39.89S976.88,521.73,988.7,536.5Z" transform="translate(-691.75 -406.94)"/><line class="f" x1="112.33" y1="162.84" x2="149.99" y2="123.69"/><line class="f" x1="122.67" y1="177.61" x2="172.89" y2="127.38"/><line class="f" x1="144.82" y1="180.56" x2="192.09" y2="133.29"/><line class="f" x1="218.48" y1="167.07" x2="260.58" y2="123.49"/><line class="f" x1="232.52" y1="178.15" x2="285.69" y2="124.97"/><line class="f" x1="255.61" y1="178.15" x2="298.25" y2="137.53"/><path class="d" d="M804.08,536.62c-6.72,8.39-5.91,39.88,14.77,47.26s59.08,4.44,62-4.43,8.86-32.49,3-39.88S815.89,521.84,804.08,536.62Z" transform="translate(-691.75 -406.94)"/><path class="d" d="M988.65,536.1c6.71,8.39,5.9,39.88-14.78,47.27s-59.08,4.43-62-4.44-8.87-32.49-3-39.88S976.83,521.33,988.65,536.1Z" transform="translate(-691.75 -406.94)"/><path d="M719,938l-.46-3.91c-.07-.56-6.72-56.61-12.69-112.34-3.5-32.75-6.1-59-7.7-78-1-11.32-1.57-20.18-1.83-26.34-.43-10.47,0-12.91,2.42-14.54,1.55-1,3.15-2.1,80.1-3.3,46.58-.73,104.57-1.16,155.14-1.16,41.69,0,77.06.29,102.29.83,45.68,1,47.58,2.52,49.25,3.85,3.12,2.5,7,5.6-8.64,120-7.57,55.34-16.23,110.62-16.31,111.17L1060,938Z" transform="translate(-691.75 -406.94)"/><path class="g" d="M934,702.88c77.55,0,145.36,1,148.77,3.72,8,6.44-26.57,227-26.57,227H723s-26.56-223.78-21.73-227c2.79-1.86,126.86-3.72,232.79-3.72m0-8.85v0c-50.59,0-108.61.43-155.21,1.16-22.75.36-41.84.77-55.21,1.19-24.16.77-24.89,1.26-27.28,2.85-5,3.34-4.78,9-4.39,18.41.26,6.22.87,15.15,1.84,26.53,1.6,19,4.2,45.3,7.71,78.08,6,55.75,12.62,111.84,12.69,112.4l.93,7.81h348.7L1065,935c.09-.55,8.75-55.86,16.33-111.26,4.45-32.59,7.66-58.85,9.54-78.06,1.13-11.55,1.79-20.7,2-27.21.26-10.06-.34-15.43-4.49-18.75-2.58-2.06-5.65-2.88-18.79-3.66-7.85-.46-19-.85-33.13-1.16-25.26-.55-60.66-.84-102.37-.84Z" transform="translate(-691.75 -406.94)"/><line class="h" x1="29.2" y1="548.8" x2="364.88" y2="548.8"/><circle class="g" cx="199.86" cy="406.32" r="29.38"/></svg>